<svg width="24" height="12" viewBox="0 0 24 12" fill="none" xmlns="http://www.w3.org/2000/svg">
<path d="M23.6164 2.0969L22.8302 1.30528C22.5828 1.05806 22.2536 0.921866 21.9018 0.921866C21.5502 0.921866 21.2207 1.05806 20.9732 1.30528L12.0054 10.2736L3.02715 1.29533C2.78012 1.04811 2.45056 0.912109 2.09894 0.912109C1.74733 0.912109 1.41757 1.04811 1.17035 1.29533L0.384003 2.08207C-0.128001 2.59368 -0.128001 3.42706 0.384003 3.93867L11.0737 14.6668C11.3207 14.9138 11.6499 15.0878 12.0046 15.0878H12.0087C12.3605 15.0878 12.6897 14.9136 12.9367 14.6668L23.6164 3.96774C23.8638 3.72072 23.9996 3.38159 24 3.02998C24 2.67817 23.8638 2.34373 23.6164 2.0969Z" fill="#6B5AF9"/>
</svg>
